<svg xmlns="http://www.w3.org/2000/svg" width="60" height="60" viewBox="0 0 60 60">
  <path fill="#EE3236" d="M2.42744982,23.2949259 L12.4593037,22.5458862 C13.755883,22.4490553 15.2838846,22.6922639 16.1835416,21.6071152 C17.4121598,20.1252338 18.5918164,18.5988675 19.7950231,17.0959049 C21.3255658,15.1840017 23.2319038,11.73406 26.0506637,11.6771287 C27.6135913,11.6455664 28.9203943,12.3123653 29.6521284,13.4602219 C30.1781472,13.7218915 30.6073067,14.2092616 30.7974499,14.9629463 C33.6704309,26.3501002 34.9558114,38.0773532 34.5857485,49.8214592 C34.5265633,51.7007877 32.583615,52.8189876 30.9434481,51.9276792 C29.1183679,50.9359669 27.4533805,49.772746 25.830913,48.4754746 C24.3889561,47.3226157 22.4781859,44.1120118 20.5835786,44.2552928 C15.3458178,44.6514299 10.1149418,45.2365836 4.88492269,45.7269313 C3.8796305,45.8211419 2.74745796,44.9190546 2.55078449,43.9360964 C1.34740051,37.9221022 0.501462294,31.8487946 0.00685338099,25.7341583 C-0.106109856,24.3374357 1.19756099,23.3867544 2.42744982,23.2949259 Z M21.8132014,39.3440746 C24.1401889,39.39648 25.4839273,41.318507 26.9232544,42.8645254 C27.8083736,43.8153258 28.7769964,44.6636975 29.8037997,45.4340566 C29.7658006,36.0071022 28.6405423,26.6583391 26.4257792,17.4803698 C26.2770036,17.3771074 26.1412291,17.2545503 26.0190469,17.1164502 C25.935573,17.263483 25.8052355,17.4040843 25.6259068,17.5380157 C25.224641,18.0392613 24.8233751,18.5405069 24.4220796,19.0417525 C23.6195479,20.0442437 22.8169866,21.0467349 22.0144253,22.049226 C20.7571747,23.6197201 19.375851,26.1801995 17.3240171,26.8234756 C15.2155393,27.4844981 12.826589,27.3969572 10.6353463,27.5605454 C8.77285802,27.6995984 6.91034018,27.8385917 5.04785193,27.9777042 C5.45807095,32.2275426 6.05459197,36.4476052 6.83490341,40.6449192 C11.7824408,40.0860872 16.8988467,39.2333087 21.8132014,39.3440746 Z M36.8502273,21.9349267 C35.9867275,20.7197307 36.240867,19.0118963 37.4178639,18.1203718 C38.5948607,17.2288473 40.24901,17.4912348 41.1125098,18.7064308 C44.4131003,23.3513239 46.1290397,26.3059343 47.1892278,29.6220672 C48.4813353,33.663614 48.5067963,37.8041398 47.1981492,42.6386809 C46.8052377,44.0902161 45.3470072,44.9380626 43.9411005,44.5323992 C42.5351937,44.1267357 41.7139988,42.6211788 42.1069104,41.1696436 C43.9993486,34.1783999 42.7308376,30.21066 36.8502273,21.9349267 Z M42.2301019,10.3988611 C41.1780942,9.38115545 41.1298948,7.68170766 42.1224455,6.6030382 C43.1149963,5.52436875 44.7724385,5.47494782 45.8244462,6.49265346 C53.3303064,13.7537754 57.1931881,19.2225429 58.9135225,25.3485238 C60.507387,31.0241548 60.3071308,36.8552956 58.5783511,47.4612585 C58.33993,48.9239581 56.9902077,49.9115336 55.563662,49.66707 C54.1371163,49.4226064 53.173951,48.0386773 53.4123721,46.5759777 C55.0207395,36.7087374 55.1986354,31.5286925 53.8803871,26.83451 C52.4684028,21.8065405 49.1154785,17.0597311 42.2301019,10.3988611 Z"/>
</svg>
