<svg xmlns="http://www.w3.org/2000/svg" width="60" height="60" viewBox="0 0 60 60">
  <path fill="#EE3236" d="M54.2436889,21.0980143 C57.223445,16.8832321 56.1584262,10.9472929 52.9481931,7.26481516 C46.5453303,-0.0798499097 34.1491244,6.07724869 35.3099126,14.7670889 C31.4817056,16.2521186 27.9767748,18.3591882 24.9216056,21.0495743 C23.0850703,18.9115688 20.0148692,17.7645119 17.0381193,18.0801222 C12.1921263,18.593958 6.50510768,22.6870686 4.75224387,27.2194259 C1.04758814,36.7983335 11.784454,45.6101312 20.4041409,40.7212967 C24.2349197,42.9226744 27.9820994,45.2525109 31.647962,47.7114851 C31.5613203,52.1173482 35.4863473,55.5165447 40.0432209,55.9424669 C45.2619325,56.4302608 50.5598605,53.7896722 52.8063138,49.0320831 C54.8756443,44.6496183 53.6585679,38.8540696 49.6516443,35.9488827 C46.2757343,33.5011968 41.5888619,33.4574008 38.1764407,35.6654228 C36.4321614,34.3351083 34.7248641,32.9617479 33.0564325,31.5411263 C36.7280543,28.7502521 40.6895563,26.3936235 44.8885621,24.4396258 C48.0516348,26.1229524 51.9902086,24.2855536 54.2436889,21.0980143 Z M43.0828152,18.9384375 C42.766675,19.1343883 42.487682,19.3797196 42.2751497,19.6670978 C36.6896179,22.2234676 31.5682829,25.5135265 26.8726506,29.4575114 C25.781526,30.3739505 25.8335602,32.3288482 26.8726506,33.2542275 C30.0344416,36.0702819 33.3312806,38.7143424 36.7459056,41.2267448 C37.6742991,41.9098659 39.3047654,41.6281801 40.0480261,40.806975 C43.4393988,37.0598489 48.5351774,40.6232821 47.7797944,45.1066465 C47.3676673,47.5526959 45.2275629,49.0893954 42.9706295,49.7731801 C40.8610084,50.4123337 36.2881246,49.7964735 37.1951088,46.6901773 C37.5525787,45.4660002 36.9475562,44.3462417 35.9428835,43.6583362 C31.3989233,40.5468714 26.7261535,37.6415199 21.9200371,34.9394181 C21.1537721,34.5086477 19.920333,34.36997 19.1694161,34.9394181 C15.1162015,38.0130965 9.14303566,35.481382 10.1027986,30.0428493 C10.4639901,27.9960701 12.2650211,26.4694981 14.0401767,25.3130709 C14.2071259,25.1980358 14.3776905,25.0887979 14.5528277,24.9868588 C14.8305446,24.8151443 15.1041145,24.6522303 15.3676886,24.4978026 C16.848326,23.6301853 19.7506545,23.1207343 20.8255805,24.508908 C22.6832182,25.2698018 23.9757807,26.7975612 24.0707042,28.7787557 C24.7426836,28.7814796 25.4041356,28.543517 25.8893517,27.9909016 C29.4948163,23.8845965 33.9528207,20.9330424 39.2288407,19.3327838 C40.5090681,18.9444793 41.7179434,17.4114815 41.1320261,16.0302924 C39.4908907,12.1616706 42.785284,9.10339299 46.6923914,10.2402635 C48.5936273,10.7934726 49.7395865,12.7211307 49.9606258,14.5513897 C50.094256,15.657703 49.880554,16.8132921 49.4287632,17.8284575 C49.3656699,17.9702083 49.1688046,18.3087481 48.9076762,18.6728512 C48.3233894,19.9342558 46.8919507,20.5701965 45.5024796,20.2474767 C44.9668953,20.1231173 44.5779497,20.0872169 44.0554093,19.7869523 C43.5912836,19.5202831 43.353443,19.2763836 43.0828152,18.9384375 Z"/>
</svg>
