<svg xmlns="http://www.w3.org/2000/svg" width="60" height="60" viewBox="0 0 60 60">
  <path fill="#EE3236" d="M36.2737973,1.12537894 C48.5852443,2.68106744 53.0536496,15.7162821 51.7726083,26.7794299 C51.0333236,33.1637723 46.0618184,38.2035716 42.0538781,42.8593706 C37.4608883,48.1948503 32.6033915,53.2738805 27.4783216,58.0987522 C25.151879,60.2889378 21.9173624,58.0982782 21.9277832,55.6709549 C21.6583221,55.374445 21.4286195,55.0168002 21.2611315,54.5861648 C16.6490277,42.7274425 5.80109446,32.4424166 8.41787922,18.6408603 C9.49489793,12.9603038 13.0278202,8.15095279 18.2463291,5.57688916 C23.3964099,3.03662419 30.4378708,0.387990518 36.2737973,1.12537894 Z M44.8958057,28.1907048 C47.1060389,20.5770801 44.2647028,6.68330615 34.0482655,7.55596833 C29.1077518,7.97798038 22.9709439,9.61028721 18.9819587,12.6921985 C15.1244025,15.6725172 13.8638491,20.7682519 14.6970079,25.4491843 C16.3281291,34.6132187 22.4704814,41.9430237 26.3392854,50.245385 C29.3918017,47.2462743 32.3550481,44.155775 35.1872229,40.9466301 C36.9969627,38.8960115 38.7819641,36.8225086 40.501845,34.6953146 C42.040746,32.7919856 44.1939158,30.6084217 44.8958057,28.1907048 Z M32.0930228,19.5713 C33.0772605,20.638725 33.5732476,22.1627986 33.0828704,23.5911469 C32.830082,24.3274619 32.3639712,24.9433046 31.7701368,25.3515953 C31.4839106,25.6650388 31.1404386,25.9225857 30.7513231,26.1004771 C30.6123419,26.1902605 30.4687749,26.2725028 30.3189899,26.342868 C29.2478964,26.8461206 28.3823557,27.0291141 27.214781,27.1793998 C26.1891053,27.3114485 25.0062907,26.4977236 24.5331278,25.6345382 C23.208602,23.2180768 24.0916184,19.9839697 26.5673789,18.6826041 C26.6374386,18.6457844 26.7111383,18.6192071 26.7825238,18.5858906 C27.5096512,17.8062828 28.7202558,17.7515675 29.6815197,17.9111446 C30.7095833,18.0818005 31.535316,18.7238028 32.0930228,19.5713 Z"/>
</svg>
