<svg xmlns="http://www.w3.org/2000/svg" width="60" height="60" viewBox="0 0 60 60">
  <path fill="#EE3236" d="M21.6164703,26.1169843 C22.8754583,25.6191585 24.0374179,25.1406475 25.2820712,24.6010662 C26.4085126,24.112732 27.7253551,24.6123573 28.2233212,25.7170103 C28.7212873,26.8216634 28.2118074,28.1130348 27.085366,28.6013689 C25.6692959,29.2152627 24.3578701,29.7523964 22.9110221,30.3204884 C22.8090309,30.3605343 22.4662729,30.4936831 22.0507631,30.6552655 C25.0553529,31.9530223 26.9859348,32.843412 29.7347802,34.2545122 C30.8259241,34.8146431 31.2474389,36.1361564 30.6762599,37.2061948 C30.1050809,38.2762331 28.757502,38.6895947 27.6663581,38.1294638 C25.457984,36.9958107 23.8013424,36.2127682 21.6121121,35.2498659 L21.6103216,39.0021298 C21.6097493,40.2012794 20.5695106,41.1729486 19.2868834,41.1724136 C18.0042562,41.1718786 16.9649452,40.1993421 16.9655175,39.0001925 L16.9682869,33.1967426 C16.0298735,32.7173779 15.8062672,32.427241 15.4475525,31.7784505 C14.6723266,30.3763355 15.2973293,29.1162213 16.4228873,28.3435512 C16.5878487,28.2303089 16.7664711,28.1233008 16.9707595,28.0151898 L16.9758853,17.2737322 C16.9764576,16.0745826 18.0166963,15.1029135 19.2993235,15.1034485 C20.5819507,15.1039835 21.6212617,16.07652 21.6206894,17.2756696 L21.6164703,26.1169843 Z M30.4840386,3.03991051 C44.792755,3.22532179 58.1610711,18.7109031 56.9198264,32.0890789 C56.279787,38.9876507 51.3090074,44.6218409 46.2125403,49.1401713 C40.6799538,54.045167 34.5572402,58.6998769 26.543534,56.3907547 C19.6723755,54.4108243 12.4679438,50.7985422 7.96514875,45.2900925 C3.15868949,39.4102419 2.24342669,32.7315039 3.52374724,25.4589101 C5.69024526,13.1529589 15.8610229,1.56483077 29.5525814,3.14502832 C29.8371509,3.07525812 30.1455686,3.03551615 30.4840386,3.03991051 Z M43.063585,43.2816373 C46.7451009,39.7476443 50.66075,35.3614917 50.4400717,30.0338661 C50.0837154,21.4330183 41.8473168,10.9753978 32.480778,9.52660716 C31.8844875,9.78067072 31.1751588,9.86150386 30.3754318,9.67694063 C19.0460732,7.06202477 11.2579599,17.6570269 9.8882079,27.1378266 C9.08050456,32.7283431 9.64021674,38.1070049 13.9736157,42.2669249 C17.8159873,45.955453 22.9439971,49.0862055 28.2981638,50.3007843 C34.5313373,51.714767 38.994573,47.1874551 43.063585,43.2816373 Z M39.3892698,29.2119541 C39.1053404,30.1152061 38.8610709,31.2686846 38.6500405,32.6466651 C38.4108387,34.208598 37.9629922,38.5816843 37.9063563,38.9169708 C37.8345961,39.3417947 37.7661164,39.6140236 37.5857753,39.9505452 C37.4496598,40.2045408 37.2728153,40.4400218 36.9938296,40.6629264 C36.4574499,41.0914843 35.7197578,41.2909745 34.9602584,41.0995102 C34.3861745,40.9547877 33.9934588,40.6536805 33.7055494,40.287509 C33.5704158,40.1156423 33.4770805,39.9508201 33.4008183,39.7794049 C33.2008893,39.3300234 33.1017574,38.7783946 32.956248,37.633742 C32.7425631,35.9527859 32.4561733,33.0393496 31.8711028,26.6824999 C31.7605278,25.4810915 32.6778406,24.4204581 33.9199781,24.3135088 C34.8729975,24.2314529 35.7403391,24.7346326 36.1424107,25.5159256 C36.4122896,25.1062775 36.7130848,24.7533845 37.0508578,24.4551549 C38.4339709,23.2339644 40.2730487,23.1643906 41.9001984,24.2386009 C43.1118213,25.0384891 44.2802635,26.490563 45.5411921,28.6771965 C46.148634,29.730589 45.7581698,31.0608147 44.6690661,31.6483388 C43.5799623,32.2358628 42.2046404,31.8582019 41.5971985,30.8048094 C40.8786759,29.5587867 40.2533963,28.6958614 39.7720433,28.204791 C39.6516345,28.4609838 39.5186829,28.8002582 39.3892698,29.2119541 Z"/>
</svg>
