<svg xmlns="http://www.w3.org/2000/svg" width="60" height="60" viewBox="0 0 60 60">
  <path fill="#EE3236" d="M54.6803102,12.4643797 C52.7804875,12.188773 50.8784804,11.9425019 48.9754769,11.7097552 C49.4015602,9.98411308 49.9568328,8.27854467 50.6477332,6.58219933 C52.1899187,2.79574597 46.1126936,1.16330327 44.5930424,4.89434075 C43.778318,6.89465954 43.1418374,8.93965977 42.6704554,11.0177933 C40.6760881,10.8232565 38.6807243,10.6430968 36.6834444,10.4944428 C36.8119822,9.20530713 36.965967,7.91803159 37.1519904,6.63319744 C37.7316369,2.62984716 31.6821198,0.906375186 31.097338,4.94533887 C30.8484253,6.6644706 30.6400591,8.38348609 30.4668358,10.1041292 C27.5719373,9.9605517 24.6744327,9.86398085 21.7743221,9.82197331 C21.9117511,8.55508151 22.0730557,7.2897398 22.2647893,6.02652945 C22.8724889,2.02259791 16.8227802,0.301838553 16.2100985,4.33863208 C15.9330179,6.16413902 15.7034587,7.99034348 15.5132963,9.81844685 C14.032812,9.83503282 12.5521744,9.85568787 11.0705787,9.89955553 C10.1842656,9.92579087 9.49210057,10.2520856 8.99393029,10.7439693 C7.29454079,10.4989381 5.26307606,11.5057629 5.0524871,13.749369 C3.77166942,27.3948076 3.08716915,41.08175 3.0000593,54.7882237 C2.98932868,56.4766636 4.43639467,58.0186195 6.13953993,57.9628162 C20.8941792,57.4794968 35.6559466,57.4110602 50.4143415,57.7575062 C52.1832503,57.7990487 53.4779412,56.2796466 53.5538222,54.5829137 C54.1382208,41.5167839 55.2825677,28.4912278 56.9851764,15.5255829 C57.1498152,14.2719056 55.9148711,12.6434931 54.6803102,12.4643797 Z M47.2918131,52.0051287 C34.4561371,51.7527061 21.6186029,51.8104161 8.78571429,52.1785714 C8.94377793,40.2952023 9.54804341,28.4279419 10.5969622,16.5903967 C11.9193082,16.5514933 13.2418091,16.5307318 14.5642325,16.5124725 C14.4717868,18.5775203 14.4353195,20.6474945 14.4689995,22.7257577 C14.5358562,26.8523734 20.8786497,26.858942 20.8116769,22.7257577 C20.7779969,20.6466735 20.8019987,18.5712645 20.888986,16.5 C23.8255326,16.5333123 26.7606081,16.6245691 29.6934383,16.7616499 C29.6289818,18.3169652 29.5955727,19.8754475 29.6038572,21.439521 C29.6258073,25.5693428 35.9684847,25.5714933 35.9465346,21.439521 C35.9389083,20.00291 35.9617874,18.5680584 36.010604,17.134849 C37.8649777,17.2696229 39.7173771,17.4317661 41.5685764,17.608845 C41.4857314,18.8803022 41.4542967,20.1593447 41.4881703,21.4460506 C41.5967592,25.5687955 47.9397077,25.5794695 47.8308477,21.4460506 C47.8028585,20.3828341 47.8312349,19.3363128 47.8938719,18.2985888 C48.6794673,18.3950067 49.4652562,18.4893523 50.25,18.5938246 C48.8582809,29.6925177 47.871496,40.8333987 47.2918131,52.0051287 Z"/>
</svg>
