<svg xmlns="http://www.w3.org/2000/svg" width="60" height="60" viewBox="0 0 60 60">
  <path fill="#EE3236" d="M54.7449219,25.3795701 C58.0762741,40.0743681 48.5914151,55.0171521 33.1852649,57.3395617 C25.8525347,58.4449758 17.6052118,56.4960502 12.0871243,51.4462614 C6.38691807,46.2298604 4.44177414,38.0580943 4.59830181,30.5972956 C4.75017638,23.3588241 6.94461538,15.349486 12.8986246,10.5894429 C15.3536283,8.62677504 18.1439339,7.09992538 21.0912026,6.23601784 C21.2504937,5.98134039 21.4672921,5.73503598 21.7511192,5.50458462 C21.9695163,5.32727254 22.1879135,5.14999681 22.4063107,4.97272102 C28.4579598,0.0598782188 36.7920147,2.83538915 42.2856025,7.06875734 C48.1586939,11.594627 53.0964711,18.1079275 54.7449219,25.3795701 Z M32.5296379,51.5462467 C43.4477434,49.466276 51.7221118,38.9369983 49.2006623,27.8147013 C47.9634867,22.3575045 45.0807772,17.394207 40.902445,13.585708 C39.1706799,12.0071853 36.7957239,10.1531592 34.2619098,9.06474043 C34.4434487,10.9694378 32.9832983,12.9877504 30.6739911,12.1426288 C25.4661956,10.2366796 19.6413065,11.9137883 15.8575989,15.8816003 C11.8733796,20.0595735 10.3661202,25.913332 10.5608898,31.5436872 C10.7522415,37.0749201 11.7503686,43.5275673 16.298464,47.3005331 C20.6339805,50.8971857 26.9206002,52.614801 32.5296379,51.5462467 Z M37.0743814,21.7117938 C38.8080764,24.5081269 39.1561083,28.2449428 36.7932019,30.8343142 C35.7583641,31.9683566 34.5165161,32.7980422 33.1332896,33.4504565 C32.4238154,33.7851144 31.678692,34.0917022 31.0020689,34.491431 C30.8925393,34.5444324 30.7946995,34.6141514 30.69055,34.674829 C32.2896105,36.2717233 31.6263297,39.7990567 28.6976961,39.807485 C26.150591,39.814871 23.874478,37.9258026 23.874478,35.2159061 C23.874478,32.9323299 25.4753318,30.9071697 27.3638907,29.7913966 C28.6536552,29.0293407 33.7742611,27.552212 32.4038019,25.3416705 C31.5625617,23.9847413 30.2506335,23.419523 28.6542279,23.5229319 C28.2113725,23.5516128 25.3024637,24.3706344 25.6168534,23.5357937 C24.2892168,27.0606392 18.6071122,25.5336431 19.9507448,21.9664626 C22.3315825,15.6450671 33.8541672,16.5177033 37.0743814,21.7117938 Z M26.433634,44.2654641 C30.5943943,44.2654641 30.5943943,50.5066047 26.433634,50.5066047 C22.2728736,50.5066047 22.2728736,44.2654641 26.433634,44.2654641 Z"/>
</svg>
