<svg xmlns="http://www.w3.org/2000/svg" width="60" height="60" viewBox="0 0 60 60">
  <path fill="#EE3236" d="M57.2964151,22.1123812 C58.2629122,25.7734323 58.1347372,29.5387888 57.5073993,33.2479637 C56.3624901,40.0170835 53.3891574,47.1675436 47.985873,51.766116 C41.9232103,56.9258053 33.9109938,59.0419997 25.9917484,57.5135929 C12.140989,54.8404647 0.821372999,41.8682948 2.09845821,27.7201813 C2.72742922,20.7525954 5.46172419,13.8137336 10.6363216,8.84575921 C15.8127088,3.87606907 23.2977589,0.264261548 30.5480697,2.87079738 C31.3019846,3.14185915 31.8350118,3.59963514 32.1800779,4.144333 C39.1083489,4.7564043 45.2020678,9.20191544 50.5262682,13.4026269 C53.4316314,15.6949753 56.3269431,18.4400263 57.2964151,22.1123812 Z M51.4948234,31.6231207 C51.8854398,28.8887029 52.326069,25.16412 50.855538,22.6534596 C49.3162765,20.0253239 46.8031344,18.1803059 44.3635897,16.3882975 C39.6642147,12.9361951 34.6286009,9.58631002 28.4948084,10.3030613 C26.7155979,10.5109643 25.7417513,9.40757939 25.5562993,8.08148057 C15.5626731,7.54562436 8.13429029,20.9109954 8.26680459,29.4961484 C8.43212586,40.2040619 16.7315231,49.9166211 27.6493319,51.6198061 C40.8328746,53.6764583 49.7886447,43.5680474 51.4948234,31.6231207 Z M27.8385779,25.1096903 C29.2794115,21.3838926 34.8230549,24.0494775 33.3874728,27.7616605 C31.3079047,33.1392225 31.7898117,35.4530184 32.6583247,41.1437458 C33.2623023,45.101027 27.1448398,45.6164412 26.544701,41.6843592 C25.5095909,34.9021493 25.3724488,31.4868459 27.8385779,25.1096903 Z M32.5,14 C37.1666667,14 37.1666667,21 32.5,21 C27.8333333,21 27.8333333,14 32.5,14 Z"/>
</svg>
