<svg xmlns="http://www.w3.org/2000/svg" width="60" height="60" viewBox="0 0 60 60">
  <path fill="#EE3236" d="M21.2155207,38.3337424 C26.1742002,41.2831663 25.8944842,48.1707126 22.4893568,52.2454439 C19.425764,55.9116872 13.299004,57.4398248 9.27194483,54.3145757 C5.11920502,51.091977 3.59009084,45.6718004 6.50748203,40.9769946 C8.90069311,37.1256403 14.2765199,35.93408 18.1531199,38.0085672 C19.0568113,37.6554051 20.1214352,37.6830033 21.2155207,38.3337424 Z M14.2419492,50.0348228 C18.7402255,50.0348228 18.7402255,42.958624 14.2419492,42.958624 C9.74367282,42.958624 9.74367282,50.0348228 14.2419492,50.0348228 Z M10.6521332,21.0126166 C27.5380183,20.5150281 44.4941122,34.8011671 41.6951148,52.2875052 C40.9341465,57.0416531 33.6519369,55.0164707 34.4071805,50.2988522 C36.4421692,37.5852845 22.0383689,28.1577615 10.6521332,28.4933061 C5.77561309,28.6369925 5.78963649,21.1558923 10.6521332,21.0126166 Z M45.8596887,17.6898531 C53.5045849,27.3649754 56.7498918,39.2230237 55.8553584,51.4133474 C55.5056395,56.1787688 47.9361202,56.2123036 48.2882454,51.4133474 C49.035905,41.225778 46.8802165,29.9344108 39.7670143,22.0840066 C33.0524951,14.6735751 23.7505395,10.5287971 13.6140024,11.6537929 C8.76899674,12.191494 8.82174049,4.73114899 13.6140024,4.1993172 C25.6017675,2.86889562 38.4336267,8.29158953 45.8596887,17.6898531 Z"/>
</svg>
