<svg xmlns="http://www.w3.org/2000/svg" width="60" height="60" viewBox="0 0 60 60">
  <path fill="#EE3236" d="M55.1528887,41.5482795 C54.2405263,39.2300821 53.2174544,36.9542993 52.0370731,34.7558303 C50.0951878,31.1391136 47.3540939,27.898343 43.8442436,25.7118744 C45.1302859,23.0263082 46.0532263,20.123122 45.9658367,17.1643799 C45.8560086,13.4470567 43.6463447,10.1318051 41.4183294,7.23581921 C41.3886386,6.00320347 40.676419,4.8375538 39.0672233,4.47655884 C32.0391484,2.90002404 24.9206386,5.25426187 20.9038401,11.25386 C17.801768,15.8872644 18.2395978,21.5538815 20.9641033,25.9776532 C13.6420449,27.6265049 8.21042373,33.5128667 5.2906639,40.8091744 C3.71624784,44.743606 2.66789264,49.9855279 7.8050095,51.7050835 C13.5549358,53.6297471 20.3142305,53.984919 26.3351408,54.511283 C32.6171381,55.0604675 38.9367199,55.1139773 45.2339433,54.8347423 C50.6344713,54.5952463 56.2395495,54.278161 56.9711623,47.9371619 C57.2114138,45.8549196 55.8929159,43.4286795 55.1528887,41.5482795 Z M26.1939994,14.0750394 C27.9624547,10.9511192 31.9475062,9.7594235 35.4803107,10.0396151 C38.1653754,13.460303 40.0445751,16.510668 38.3605197,20.9684565 C37.6775144,22.7763385 36.7270393,24.7256878 35.4142868,26.1876214 C33.5039453,28.3150394 29.8439718,25.7357881 28.1521107,24.4639537 C24.6840698,21.8568792 24.1502686,17.685317 26.1939994,14.0750394 Z M49.7178066,47.458568 C47.9086204,48.0242372 45.5087653,47.8054323 43.6204976,47.8867148 C39.3892134,48.0687829 35.150017,48.0160051 30.9199841,47.8376298 C26.5630737,47.653946 22.2121378,47.2408402 17.8959994,46.6513595 C15.7997946,46.3650436 13.7151352,46.0073314 11.6348355,45.6318856 C11.0855844,45.5402937 10.542106,45.4231977 10,45.3002931 C10.1162203,44.8597213 10.2287671,44.4182647 10.3645661,43.9826168 C12.2393912,37.608039 17.9607905,30.7309946 25.7065391,31.7240411 C26.109778,31.7757418 26.4901685,31.76424 26.8457729,31.703307 C29.1897582,32.9966333 31.802314,33.8294613 34.5331892,33.6457775 C36.7115839,33.4992536 38.483712,32.4351955 39.9159793,31 C44.5153821,33.8816622 46.8889978,38.8349698 48.8531175,43.678144 C49.164559,44.4461538 50.5985622,47.183177 49.7178066,47.458568 Z"/>
</svg>
