<svg xmlns="http://www.w3.org/2000/svg" width="60" height="60" viewBox="0 0 60 60">
  <path fill="#EE3236" d="M49.9548577,5.23549202 C51.6043573,5.357473 53.0070361,6.54728689 52.9999734,8.32251155 C52.9374876,23.984463 51.7038291,39.5848021 49.3960909,55.0696041 C49.1306097,56.8509711 47.1266768,57.4775698 45.6502491,57.2256943 C33.8711676,55.216343 21.9901981,54.056525 10.0516866,53.6920518 C8.48534035,53.6441939 6.88446145,52.3215839 7.00657089,50.6050322 C8.0693505,35.6645662 10.0858847,20.8124298 13.0497428,6.13759358 C13.0807441,5.98403399 13.1222278,5.84211852 13.1682837,5.70559175 C13.1197745,4.12451166 14.089513,2.58254694 16.0938921,2.73083088 C27.3808558,3.56570537 38.6678568,4.40057986 49.9548577,5.23549202 Z M18.6675203,9.09524619 C16.1464158,21.8376051 14.3669635,34.6964433 13.3310591,47.647342 C23.5733832,48.0882371 33.7712869,49.1255842 43.9003112,50.7265234 C45.7326219,37.6218014 46.7053341,24.4155227 46.873611,11.1816222 C37.4715932,10.4861384 28.069501,9.7906923 18.6675203,9.09524619 Z M39.5783245,19.643534 C41.5640957,19.7367744 42.5094289,21.4873532 42.2643059,23.4621951 L41.2638208,31.5220822 C41.1118304,32.7465446 39.6781554,33.8448083 38.5778394,33.7368378 C36.2497666,33.5084134 33.9217279,33.2799522 31.5936551,33.0515278 C30.0072416,32.8958692 28.2851587,32.9446253 26.9484584,31.8883787 C24.0939614,29.6327843 25.4264454,24.620962 26.0119998,21.4934661 C26.275314,20.0870891 27.172772,19.4217749 28.1644164,19.3304125 C28.6023667,18.914071 29.2197813,18.687856 30.0214887,18.7931014 C33.198362,19.2101794 36.3812198,19.493436 39.5783245,19.643534 Z"/>
</svg>
