<svg xmlns="http://www.w3.org/2000/svg" width="60" height="60" viewBox="0 0 60 60">
  <path fill="#EE3236" d="M54.7455157,25.3794592 C58.0769479,40.0746098 48.5918612,55.0177524 33.1853413,57.3402177 C25.8524352,58.4456584 17.6049144,56.496686 12.0866945,51.446776 C6.38635145,46.2302498 4.44116085,38.0582877 4.59769227,30.5973099 C4.74957049,23.3586647 6.94406215,15.3491345 12.8982143,10.5889771 C15.3532769,8.62626217 18.1436494,7.09937587 21.0909888,6.23544761 C21.2502837,5.98076405 21.4670873,5.73445372 21.7509212,5.50399684 C21.9693236,5.3266805 22.1877261,5.14940052 22.4061285,4.97212047 C28.4579228,0.0591597815 36.7921777,2.83473731 42.2858973,7.06820709 C48.1591297,11.5941853 53.0970253,18.1076421 54.7455157,25.3794592 Z M32.5296986,51.5467638 C43.4480661,49.4667431 51.722633,38.9372127 49.201123,27.8146489 C47.9639178,22.3573211 45.081139,17.3939045 40.9027066,13.5853142 C39.1709,12.0067536 36.795887,10.152683 34.2620121,9.06423808 C34.4435553,10.9689812 32.9833699,12.9873422 30.6740073,12.1422003 C25.4660868,10.2362053 19.6410579,11.9133543 15.8572595,15.8812615 C11.8729446,20.0593349 10.3656491,25.913234 10.5604233,31.5437242 C10.7517797,37.0750899 11.7499307,43.5278919 16.2981352,47.3009482 C20.6337558,50.8976872 26.9205263,52.6153437 32.5296986,51.5467638 Z M29.9327481,37.5380611 C25.7876804,37.5380611 22.4274391,34.1778198 22.4274391,30.0327521 C22.4274391,25.8876843 25.7876804,22.527443 29.9327481,22.527443 C34.0778159,22.527443 37.4380572,25.8876843 37.4380572,30.0327521 C37.4380572,34.1778198 34.0778159,37.5380611 29.9327481,37.5380611 Z"/>
</svg>
