<svg id="Layer_1" data-name="Layer 1" xmlns="http://www.w3.org/2000/svg" xmlns:xlink="http://www.w3.org/1999/xlink" width="648.52" height="234.91" viewBox="0 0 648.52 234.91">
  <defs>
    <radialGradient id="radial-gradient" cx="117.46" cy="117.46" r="117.46" gradientUnits="userSpaceOnUse">
      <stop offset="0.26" stop-color="#ed1a55"/>
      <stop offset="1" stop-color="#ef4123"/>
    </radialGradient>
  </defs>
  <title>logo</title>
  <rect width="234.91" height="234.91" style="fill: url(#radial-gradient)"/>
  <circle cx="79.94" cy="46.78" r="9.45" style="fill: #fff"/>
  <circle cx="113.61" cy="49.87" r="10.73" style="fill: #fff"/>
  <circle cx="148.13" cy="53.12" r="10.69" style="fill: #fff"/>
  <circle cx="183.7" cy="56.24" r="12.06" style="fill: #fff"/>
  <circle cx="145.74" cy="86.56" r="13.07" style="fill: #fff"/>
  <circle cx="98.23" cy="117.6" r="14.21" style="fill: #fff"/>
  <circle cx="36.86" cy="157.39" r="16.95" style="fill: #fff"/>
  <circle cx="87.48" cy="164.56" r="18.11" style="fill: #fff"/>
  <circle cx="140.01" cy="172" r="18.8" style="fill: #fff"/>
  <circle cx="194.69" cy="179.75" r="19.94" style="fill: #fff"/>
  <g>
    <path d="M482.77,5520.06l-0.1-.2H451.81V5506h56.93l0.1,0.2-34.14,57.84,0.1,0.2H508v13.84H448.73l-0.1-.2Z" transform="translate(-98.72 -5437.32)" style="fill: #231f20"/>
    <path d="M531,5557.59c1.69,6.77,7.27,9.86,14.23,9.86a30.46,30.46,0,0,0,16.62-5.38v12.64c-4.78,3-12.14,4.48-18.61,4.48-16.12,0-27.77-10.05-27.77-25.38,0-15.63,12.14-25.78,25.68-25.78,12,0,23.39,8,23.39,24.39a40.32,40.32,0,0,1-.3,5.18H531Zm19.61-9.56c-0.9-5.28-4.78-8.46-9.66-8.46-4.68,0-8.76,2.89-10.05,8.46h19.71Z" transform="translate(-98.72 -5437.32)" style="fill: #231f20"/>
    <path d="M605.3,5576.51c-2.29,1.49-6.77,2.69-11,2.69-5,0-9.66-1.59-12.74-4.88-2.59-2.79-4.28-6.87-4.28-14.63v-18h-8v-12.54h8v-12.74l15.13-2.59v15.33H605.3v12.54H592.36v16.43c0,4.78,1.09,8.36,5.67,8.36a17.53,17.53,0,0,0,7.27-2v12Z" transform="translate(-98.72 -5437.32)" style="fill: #231f20"/>
    <path d="M614.36,5502h15.13v47.78l0.2,0.1,17.12-20.81H664L645.32,5551l20.11,27.08H647.5l-17.82-25-0.2.1v24.89H614.36V5502Z" transform="translate(-98.72 -5437.32)" style="fill: #231f20"/>
    <path d="M679.76,5504.93a8.66,8.66,0,1,1-8.76,8.66A8.75,8.75,0,0,1,679.76,5504.93Zm-7.56,24.19h15.13v49H672.19v-49Z" transform="translate(-98.72 -5437.32)" style="fill: #231f20"/>
    <path d="M699.86,5529.12h14.93v4.48l0.2,0.1a24,24,0,0,1,15.13-5.67,17.63,17.63,0,0,1,12.84,5c3,3.19,4.28,7.47,4.28,14.53v30.56H732.11V5550c0-3.68-.5-5.48-1.69-6.87a6.48,6.48,0,0,0-5.18-2.09c-3.88,0-7.56,2-10.25,4.08v33H699.86v-49Z" transform="translate(-98.72 -5437.32)" style="fill: #231f20"/>
  </g>
  <g>
    <path d="M449.53,5594.77h24.74v5H455v13.53H472v4.8H455v18.55h-5.49v-41.85Z" transform="translate(-98.72 -5437.32)" style="fill: #231f20"/>
    <path d="M493.4,5607.54a14.86,14.86,0,1,1-15,14.85A14.64,14.64,0,0,1,493.4,5607.54Zm0,25a10.12,10.12,0,1,0-9.83-10.12A9.74,9.74,0,0,0,493.4,5632.51Z" transform="translate(-98.72 -5437.32)" style="fill: #231f20"/>
    <path d="M515.49,5625.58v-17.4h5.2v16.42c0,3.12.41,4.74,1.39,5.9a5.55,5.55,0,0,0,4.51,2c3.53,0,6.88-2.31,8.9-4.86v-19.42h5.2v28.44h-5.2V5633l-0.12-.06a13.93,13.93,0,0,1-9.83,4.28,10.17,10.17,0,0,1-7.75-3.18C516.18,5632.17,515.49,5629.62,515.49,5625.58Z" transform="translate(-98.72 -5437.32)" style="fill: #231f20"/>
    <path d="M549.82,5608.18H555v3.58l0.12,0.06a14.1,14.1,0,0,1,9.94-4.28,9.84,9.84,0,0,1,7.57,3.12c1.56,1.79,2.37,4,2.37,8.38v17.57h-5.2V5620c0-2.95-.41-4.68-1.33-5.78a5.89,5.89,0,0,0-4.57-1.85,12,12,0,0,0-8.9,4.74v19.48h-5.2v-28.44Z" transform="translate(-98.72 -5437.32)" style="fill: #231f20"/>
    <path d="M597.28,5607.54a16.3,16.3,0,0,1,6.82,1.5l0.12-.06v-16.53h5.2v44.16h-5.2v-1.73l-0.12-.06a13.76,13.76,0,0,1-8,2.43c-7.69,0-13.93-5.61-13.93-14.39S588.32,5607.54,597.28,5607.54Zm-0.46,25.08a13.15,13.15,0,0,0,7.4-2.43V5614a15.83,15.83,0,0,0-7-1.79c-6,0-9.77,4.57-9.77,10.4C587.45,5628.24,591,5632.63,596.82,5632.63Z" transform="translate(-98.72 -5437.32)" style="fill: #231f20"/>
    <path d="M619.65,5635.23a7.57,7.57,0,0,1-3-6.3,7.9,7.9,0,0,1,3.76-6.94,14.84,14.84,0,0,1,8-1.91,24.89,24.89,0,0,1,6.07.75v-2.37a6.14,6.14,0,0,0-1.62-4.68,7.72,7.72,0,0,0-5.26-1.56,14.83,14.83,0,0,0-8.73,2.83V5610a17.89,17.89,0,0,1,9.48-2.43c3.47,0,6.47.75,8.5,2.6,1.68,1.5,2.83,3.93,2.83,7.46v12.08c0,1.73.64,3,2.2,3a4,4,0,0,0,1.68-.4v4.33a7.41,7.41,0,0,1-2.77.52,6,6,0,0,1-5.49-3h-0.12a13.5,13.5,0,0,1-8.73,3.12A11.35,11.35,0,0,1,619.65,5635.23Zm14.8-5.09v-5.32a21.42,21.42,0,0,0-5.55-.75c-3.53,0-7,1-7,4.39,0,2.77,2.37,4.16,5.43,4.16A11.86,11.86,0,0,0,634.45,5630.14Z" transform="translate(-98.72 -5437.32)" style="fill: #231f20"/>
    <path d="M651.5,5626.73v-13.87h-5.26v-4.68h5.26v-7.75l5.2-.87v8.61h8.55v4.68h-8.55v12.89c0,3.53.52,6.76,4.28,6.76a8.61,8.61,0,0,0,4.28-1.21v4.91a12.65,12.65,0,0,1-5.14,1,8.26,8.26,0,0,1-6.47-2.66C652.25,5633,651.5,5630.72,651.5,5626.73Z" transform="translate(-98.72 -5437.32)" style="fill: #231f20"/>
    <path d="M674.39,5594.77a3.64,3.64,0,1,1-3.64,3.64A3.63,3.63,0,0,1,674.39,5594.77Zm-2.6,13.41H677v28.44h-5.2v-28.44Z" transform="translate(-98.72 -5437.32)" style="fill: #231f20"/>
    <path d="M699.19,5607.54a14.86,14.86,0,1,1-15,14.85A14.64,14.64,0,0,1,699.19,5607.54Zm0,25a10.12,10.12,0,1,0-9.83-10.12A9.74,9.74,0,0,0,699.19,5632.51Z" transform="translate(-98.72 -5437.32)" style="fill: #231f20"/>
    <path d="M721.39,5608.18h5.2v3.58l0.12,0.06a14.1,14.1,0,0,1,9.94-4.28,9.84,9.84,0,0,1,7.57,3.12c1.56,1.79,2.37,4,2.37,8.38v17.57h-5.2V5620c0-2.95-.41-4.68-1.33-5.78a5.89,5.89,0,0,0-4.57-1.85,12,12,0,0,0-8.9,4.74v19.48h-5.2v-28.44Z" transform="translate(-98.72 -5437.32)" style="fill: #231f20"/>
  </g>
</svg>
