<?xml version="1.0" encoding="utf-8"?>
<!-- Generator: Adobe Illustrator 27.0.0, SVG Export Plug-In . SVG Version: 6.00 Build 0)  -->
<svg version="1.1" id="Lager_1" xmlns="http://www.w3.org/2000/svg" xmlns:xlink="http://www.w3.org/1999/xlink" x="0px" y="0px"
	 viewBox="0 0 595.3 340.9" style="enable-background:new 0 0 595.3 340.9;" xml:space="preserve">
<g>
	<g>
		<g>
			<path d="M359.8,137.5c-0.5-0.1-1.1,0-1.6,0c-5.1,0.3-10.2-0.4-15.2-2.1c-2.2-0.8-4.4-1.7-6.4-2.9c-1.8-1.1-3.5-2.3-5-3.9
				c-1.2-1.2-2.2-2.5-2.9-4c-0.5-1-0.8-1.9-1-3c-0.4-2.4,0-4.5,1.1-6.5c0.9-1.6,2.2-2.8,3.6-3.8c1.5-1.1,3.2-1.8,4.9-2.4
				c1.6-0.5,3.2-0.9,4.8-1.1c3-0.4,6.1-0.4,9.1-0.1c4,0.5,7.9,1.5,11.6,3.3c2.3,1.1,4.6,2.5,6.6,4.2c1.4,1.2,2.6,2.5,3.6,4
				c0.3,0.5,0.6,1.1,0.9,1.6c0.2,0.5,0.4,0.9,0.5,1.5c0,0.1,0.1,0.3,0.2,0.4c0.1,0.9,0.3,1.8,0.4,2.6c0,0.1-0.1,0.2-0.1,0.4
				c0.1,0.5,0,1.1-0.1,1.6c-0.2,0.9-0.5,1.7-0.9,2.5c-0.6,1.1-1.4,2.1-2.4,2.9c-1.4,1.2-2.9,2.1-4.5,2.8c-1.2,0.5-2.4,0.9-3.6,1.2
				c-0.2,0.1-0.4,0.2-0.6,0.3C361.9,137.2,360.9,137.3,359.8,137.5z"/>
			<path d="M287.5,119.2c-4.2,0-8.1-0.6-11.8-2.1c-1.6-0.6-3.1-1.4-4.4-2.4c-1.1-0.8-2.1-1.8-2.9-3c-0.7-1-1.1-2.2-1.2-3.4
				c-0.1-1.3,0.2-2.6,0.8-3.8c0.6-1.3,1.6-2.4,2.7-3.4c1.6-1.5,3.5-2.5,5.5-3.3c2.3-0.9,4.7-1.5,7.1-1.9c2.6-0.4,5.3-0.5,7.9-0.3
				c3.6,0.3,7.1,1.1,10.4,2.8c1.7,0.9,3.2,1.9,4.4,3.3c0.4,0.5,0.8,1.1,1.2,1.6c1.2,2.2,1.3,4.5,0.3,6.8c-0.6,1.3-1.5,2.5-2.5,3.4
				c-1.7,1.6-3.6,2.7-5.8,3.5c-2.1,0.9-4.4,1.4-6.6,1.8C290.8,119.1,289,119.2,287.5,119.2z"/>
			<path d="M226.9,106.9c-1.9,0-3.9-0.2-6-0.7c-1.1-0.3-2.2-0.7-3.2-1.2c-0.6-0.3-1.2-0.7-1.6-1.2c-0.7-0.7-1.2-1.5-1.4-2.6
				c-0.1-0.7,0-1.5,0.3-2.1c0.3-0.9,0.9-1.6,1.5-2.3c1-1.1,2.1-2,3.4-2.8c2.5-1.6,5.1-2.7,7.9-3.6c2.8-0.8,5.6-1.4,8.4-1.6
				c2.1-0.2,4.2-0.2,6.2,0.1c1.8,0.2,3.5,0.6,5.1,1.3c0.9,0.4,1.6,0.9,2.3,1.6c1.1,1.2,1.5,2.6,1,4.2c-0.2,0.6-0.5,1.1-0.8,1.7
				c-0.8,1.1-1.7,2.1-2.8,2.9c-1.8,1.4-3.7,2.4-5.7,3.3c-3.1,1.3-6.3,2.1-9.6,2.6C230.3,106.7,228.7,106.9,226.9,106.9z"/>
			<path d="M280.4,81.4c-2.9,0-5.4-0.3-7.9-1c-0.9-0.3-1.8-0.6-2.7-1.1c-0.6-0.3-1.1-0.7-1.6-1.2c-1-1-1.1-2.2-0.2-3.4
				c0.3-0.5,0.8-0.9,1.2-1.2c0.9-0.7,2-1.2,3-1.6c1.6-0.7,3.4-1.1,5.1-1.4c2.2-0.4,4.4-0.5,6.7-0.5c2.2,0.1,4.4,0.3,6.5,0.9
				c1,0.3,2.1,0.7,3,1.3c0.5,0.3,1,0.7,1.4,1.2c0.7,1,0.8,2,0.1,3c-0.4,0.6-0.9,1-1.4,1.5c-0.8,0.6-1.8,1.1-2.7,1.5
				c-1.6,0.6-3.3,1.1-5,1.4C284,81.2,282,81.4,280.4,81.4z"/>
			<path d="M324.7,62.8c-2.7-0.1-5.4-0.4-8-1.5c-1-0.4-2-0.9-3-1.7c-0.4-0.4-0.8-0.8-1.1-1.3c-0.6-1-0.6-2,0-2.9
				c0.4-0.7,0.9-1.2,1.5-1.5c1.1-0.7,2.2-1.2,3.4-1.5c2.7-0.7,5.4-0.9,8.2-0.6c2,0.2,4,0.6,6,1.5c0.9,0.4,1.7,0.9,2.5,1.7
				c0.3,0.3,0.6,0.7,0.9,1.1c0.6,1,0.6,2.1,0,3c-0.3,0.5-0.7,0.9-1.1,1.2c-0.9,0.8-1.9,1.2-2.9,1.5
				C328.9,62.5,326.8,62.7,324.7,62.8z"/>
			<path d="M286.2,57.6c-2.1-0.1-3.8-0.2-5.4-1c-0.5-0.3-1.1-0.6-1.6-1c-0.3-0.2-0.5-0.5-0.8-0.9c-0.6-0.9-0.6-1.9-0.1-2.8
				c0.3-0.5,0.6-1,1-1.3c0.6-0.5,1.3-1,1.9-1.4c1.3-0.8,2.7-1.1,4.1-1.4c1.4-0.3,2.8-0.3,4.2-0.2c1.3,0.1,2.6,0.4,3.9,1.1
				c0.5,0.3,1,0.7,1.5,1.1c0.3,0.2,0.5,0.7,0.7,1.1c0.2,0.6,0.2,1.2,0,1.8c-0.2,0.6-0.5,1-0.7,1.3c-0.5,0.6-1,1.1-1.6,1.4
				c-1.2,0.8-2.5,1.3-3.7,1.5C288.2,57.3,287,57.4,286.2,57.6z"/>
			<path d="M250.9,53.7c-1.1-0.2-2.3-0.5-3.3-1.2c-0.4-0.2-0.8-0.6-1.1-1c-0.6-0.9-0.5-2,0.3-3c0.4-0.4,0.7-0.7,1.1-1
				c1.1-0.8,2.2-1.2,3.2-1.5c2.5-0.7,4.9-0.7,7.3,0c0.8,0.2,1.5,0.5,2.2,1.2c0.2,0.2,0.5,0.5,0.7,0.9c0.3,0.6,0.2,1.4-0.2,2.1
				c-0.3,0.5-0.6,0.8-0.9,1.1c-0.9,0.8-1.7,1.2-2.6,1.5c-1.4,0.5-2.8,0.8-4.1,0.8C252.6,53.7,251.8,53.7,250.9,53.7z"/>
		</g>
	</g>
</g>
<g>
	<path d="M69.3,295.3v-33.6h-9v-11h9V249c0-3.9,0.8-7.2,2.4-9.9c1.6-2.7,3.8-4.8,6.7-6.2s6.3-2.2,10.2-2.2c0.8,0,1.6,0,2.5,0.1
		c0.9,0.1,1.7,0.2,2.3,0.3v10.6c-0.6-0.1-1.2-0.2-1.7-0.2s-1,0-1.4,0c-2.8,0-4.9,0.6-6.4,1.8s-2.2,3.1-2.2,5.7v1.7H90v11h-8.3v33.6
		H69.3z"/>
	<path d="M120.8,296.1c-5,0-9.6-1.2-13.7-3.5s-7.3-5.5-9.8-9.5s-3.6-8.6-3.6-13.7s1.2-9.7,3.6-13.7c2.4-4,5.7-7.2,9.7-9.5
		c4.1-2.3,8.6-3.5,13.7-3.5c5,0,9.5,1.2,13.6,3.5c4.1,2.3,7.3,5.5,9.7,9.4s3.6,8.6,3.6,13.8c0,5.1-1.2,9.7-3.7,13.7
		c-2.4,4-5.7,7.2-9.8,9.5C130.3,295,125.8,296.1,120.8,296.1z M120.8,284.9c2.8,0,5.2-0.7,7.3-2c2.1-1.3,3.8-3.1,5-5.5
		s1.8-5,1.8-7.9c0-3-0.6-5.6-1.8-7.9s-2.9-4.1-5-5.4c-2.1-1.3-4.5-2-7.3-2c-2.8,0-5.3,0.7-7.4,2c-2.1,1.4-3.8,3.2-5,5.4
		c-1.2,2.3-1.8,4.9-1.8,7.9c0,2.9,0.6,5.6,1.8,7.9c1.2,2.4,2.9,4.2,5,5.5C115.6,284.2,118,284.9,120.8,284.9z"/>
	<path d="M186.9,243.9v29.9c0,2.2-0.4,4.2-1.3,5.8c-0.9,1.6-2.1,2.9-3.7,3.8c-1.6,0.9-3.4,1.4-5.4,1.4s-3.8-0.5-5.4-1.4
		c-1.6-0.9-2.8-2.2-3.7-3.8c-0.8-1.6-1.3-3.5-1.3-5.6v-30.2h-12.3v31.3c0,4.2,0.8,7.9,2.3,11s3.8,5.6,6.7,7.3s6.3,2.6,10.3,2.6
		c3.6,0,6.8-0.8,9.5-2.4c2-1.2,3.6-2.8,4.8-4.9v6.1h11.6v-51.1L186.9,243.9L186.9,243.9z"/>
	<path d="M250.7,252.1c-1.6-2.9-3.9-5.2-6.8-6.8s-6.2-2.4-10-2.4c-3.6,0-6.8,0.8-9.5,2.4c-2.1,1.2-3.7,2.9-4.9,5v-6.3h-11.6V295
		h12.3V265c0-2.2,0.4-4.2,1.3-5.8c0.9-1.6,2.1-2.9,3.7-3.8c1.6-0.9,3.4-1.4,5.4-1.4c2.1,0,3.9,0.5,5.4,1.4c1.5,0.9,2.7,2.2,3.6,3.8
		c0.9,1.6,1.3,3.6,1.3,5.8V295h12.3v-32.9C253.2,258.3,252.3,255,250.7,252.1z"/>
	<path d="M301.6,231.5v17.6c-1.5-1.6-3.2-3-5.3-4c-3-1.5-6.5-2.3-10.4-2.3c-4.8,0-9.2,1.2-13.1,3.6s-7,5.6-9.2,9.6
		c-2.2,4-3.4,8.5-3.4,13.5c0,4.9,1.1,9.5,3.4,13.5c2.2,4.1,5.3,7.3,9.2,9.6s8.3,3.5,13.2,3.5c3.7,0,7.1-0.7,10.2-2.2
		c2.4-1.1,4.4-2.6,6-4.5v5.6h11.6v-63.5L301.6,231.5L301.6,231.5z M299.7,277.4c-1.2,2.3-2.9,4.1-5,5.4c-2.1,1.3-4.6,2-7.4,2
		c-2.8,0-5.2-0.7-7.4-2s-3.9-3.1-5.1-5.4s-1.8-5-1.8-8s0.6-5.6,1.8-7.9s2.9-4.1,5.1-5.4c2.2-1.3,4.7-2,7.4-2c2.8,0,5.3,0.7,7.4,2
		s3.8,3.1,5,5.5s1.8,5,1.8,7.9C301.6,272.5,301,275.1,299.7,277.4z"/>
	<path d="M361.9,251.5c-1.8-2.7-4.3-4.9-7.5-6.4s-6.9-2.3-11.1-2.3c-3.4,0-6.6,0.6-9.6,1.7s-5.5,2.7-7.6,4.6s-3.7,4.3-4.7,7l10,4.9
		c0.9-2.3,2.4-4.2,4.5-5.6c2-1.4,4.4-2.1,7-2.1c2.8,0,5.1,0.7,6.8,2.2c1.7,1.5,2.6,3.3,2.6,5.5v1.6l-15.2,2.5c-4,0.6-7.3,1.7-10,3.2
		s-4.6,3.4-5.8,5.6c-1.2,2.2-1.9,4.7-1.9,7.6c0,2.9,0.7,5.5,2.2,7.7s3.5,3.9,6.1,5.1s5.7,1.8,9.3,1.8c2.8,0,5.4-0.4,7.7-1.2
		c2.3-0.8,4.4-1.9,6.2-3.4c0.7-0.6,1.4-1.3,2.1-2v5.4h11.6v-34C364.5,257.4,363.7,254.2,361.9,251.5z M350.6,280.5
		c-1.1,1.9-2.6,3.5-4.6,4.5c-2,1.1-4.2,1.6-6.8,1.6c-2,0-3.7-0.5-5-1.5c-1.4-1-2-2.4-2-4.2c0-1.8,0.6-3.3,1.8-4.4
		c1.2-1.1,3-1.9,5.4-2.4l12.9-2.2v2.1C352.3,276.5,351.7,278.6,350.6,280.5z"/>
	<path d="M400.2,284.7c-0.6,0.1-1.1,0.1-1.5,0.1c-2,0-3.6-0.3-4.9-0.9c-1.3-0.6-2.2-1.5-2.8-2.7s-0.9-2.6-0.9-4.3v-21.9h11.7v-11
		H390v-11.6h-12.3v3.9c0,2.5-0.7,4.4-2.1,5.7c-1.4,1.3-3.3,2-5.8,2h-0.9v11h8.8v22.5c0,5.8,1.6,10.2,4.7,13.4s7.6,4.7,13.4,4.7
		c0.9,0,2-0.1,3.1-0.2s2.1-0.2,3-0.4v-10.5C401.3,284.5,400.8,284.6,400.2,284.7z"/>
	<g>
		<rect x="410.7" y="251.5" width="12.3" height="43.5"/>
		<rect x="410.7" y="232.6" width="12.3" height="13.1"/>
	</g>
	<path d="M479.6,255.7c-2.4-4-5.6-7.1-9.7-9.4s-8.6-3.5-13.6-3.5c-5.1,0-9.6,1.2-13.7,3.5c-4.1,2.3-7.3,5.5-9.7,9.5
		c-2.4,4-3.6,8.6-3.6,13.7c0,5.1,1.2,9.7,3.6,13.7c2.4,4,5.7,7.2,9.8,9.5c4.1,2.3,8.6,3.5,13.7,3.5c4.9,0,9.5-1.2,13.5-3.5
		c4.1-2.3,7.3-5.5,9.8-9.5s3.7-8.6,3.7-13.7C483.2,264.3,482,259.7,479.6,255.7z M468.5,277.4c-1.2,2.4-2.9,4.2-5,5.5s-4.5,2-7.3,2
		c-2.8,0-5.3-0.7-7.4-2s-3.8-3.1-5-5.5c-1.2-2.4-1.8-5-1.8-7.9c0-3,0.6-5.6,1.8-7.9s2.9-4.1,5-5.4c2.1-1.3,4.6-2,7.4-2
		c2.8,0,5.2,0.7,7.3,2c2.1,1.4,3.8,3.2,5,5.4c1.2,2.3,1.8,4.9,1.8,7.9C470.3,272.4,469.7,275,468.5,277.4z"/>
	<path d="M532.3,252.1c-1.6-2.9-3.9-5.2-6.8-6.8s-6.2-2.4-10-2.4c-3.6,0-6.8,0.8-9.5,2.4c-2.1,1.2-3.7,2.9-4.9,5v-6.3h-11.5V295
		h12.3V265c0-2.2,0.4-4.2,1.3-5.8c0.9-1.6,2.1-2.9,3.7-3.8c1.6-0.9,3.4-1.4,5.3-1.4c2.1,0,3.9,0.5,5.4,1.4c1.5,0.9,2.7,2.2,3.6,3.8
		c0.9,1.6,1.3,3.6,1.3,5.8V295h12.3v-32.9C534.7,258.3,533.9,255,532.3,252.1z"/>
</g>
<g>
	<path d="M257.4,183.6c-1.1-3-2.8-5.6-4.9-7.9s-4.7-4.1-7.7-5.4c-3-1.3-6.6-2-10.6-2c-4.8,0-9.1,1.2-12.9,3.5
		c-3.9,2.3-6.9,5.5-9.1,9.4c-2.2,4-3.3,8.5-3.3,13.7c0,4.9,1.1,9.5,3.3,13.5c2.2,4.1,5.3,7.3,9.2,9.7s8.5,3.6,13.8,3.6
		c3.5,0,6.7-0.5,9.6-1.6c2.9-1.1,5.4-2.5,7.6-4.4s3.7-4,4.7-6.5l-9.9-4.9c-1.1,2-2.7,3.6-4.6,4.8s-4.4,1.8-7.2,1.8
		c-2.8,0-5.3-0.7-7.5-2s-3.8-3.2-4.9-5.6c-0.7-1.5-1.1-3.1-1.2-4.8h36.8c0.2-0.7,0.4-1.5,0.5-2.4c0.1-0.9,0.1-1.9,0.1-2.7
		C259.1,189.8,258.5,186.6,257.4,183.6z M227.4,180.3c2-1.3,4.3-1.9,6.9-1.9c2.7,0,5,0.7,6.9,2c1.9,1.3,3.3,3.1,4.1,5.4
		c0.4,1,0.6,2.1,0.7,3.3h-24c0.2-1.1,0.5-2.1,0.9-3C223.9,183.5,225.4,181.6,227.4,180.3z"/>
	<path d="M288.9,221c-5.8,0-10.2-1.6-13.4-4.7s-4.7-7.6-4.7-13.4v-22.5h-8.8v-11h0.9c2.5,0,4.4-0.7,5.8-2s2.1-3.2,2.1-5.7v-3.9H283
		v11.6h11.7v11H283v21.9c0,1.7,0.3,3.1,0.9,4.3c0.6,1.2,1.5,2.1,2.8,2.7c1.3,0.6,2.9,0.9,4.9,0.9c0.4,0,1,0,1.5-0.1
		c0.6-0.1,1.2-0.1,1.7-0.2v10.5c-0.9,0.1-1.9,0.2-3,0.4C290.8,220.9,289.8,221,288.9,221z"/>
	<polygon points="335.6,220.4 349.7,220.4 330.5,189.9 349.4,169.4 334.1,169.4 314.7,189.6 314.7,150.7 302.4,150.7 302.4,220.4 
		314.7,220.4 314.7,204.9 321.3,197.8 	"/>
	<path d="M356.1,220.4v-51.1h12.3v51.1H356.1z"/>
	<path d="M420.3,177.5c-1.6-2.9-3.9-5.2-6.8-6.8s-6.2-2.4-10-2.4c-3.6,0-6.8,0.8-9.5,2.4c-2.1,1.2-3.7,2.9-4.9,5v-6.3h-11.5v51.1
		h12.3v-29.9c0-2.2,0.4-4.2,1.3-5.8c0.9-1.6,2.1-2.9,3.7-3.8c1.6-0.9,3.4-1.4,5.4-1.4c2.1,0,3.9,0.5,5.4,1.4
		c1.5,0.9,2.7,2.2,3.6,3.8c0.9,1.6,1.3,3.6,1.3,5.8v29.9h12.3v-32.9C422.8,183.8,422,180.4,420.3,177.5z"/>
	<polygon points="179.5,209.2 205.6,178.3 205.6,168 163.5,168 163.5,179.3 188.8,179.3 162.1,210.2 162.1,220.4 205.9,220.4 
		205.9,209.2 	"/>
</g>
</svg>
