<svg xmlns="http://www.w3.org/2000/svg" width="60" height="60" viewBox="0 0 60 60">
  <path fill="#EE3236" d="M49.8977365,13.9047563 C55.0021604,19.6131353 57.5231684,26.5459128 56.5170842,34.1609673 C55.5783929,41.2660044 51.5794548,47.914671 45.3604527,51.7649311 C32.4377616,59.7655075 15.0485335,55.8335552 7.26327262,42.7521582 C3.37952795,36.2264508 1.77235964,28.025178 4.96601937,20.9049348 C6.61953347,17.2183524 9.29277034,14.0820692 12.6014012,11.8343638 C21.8241314,-0.450738294 40.2797995,3.14883722 49.8977365,13.9047563 Z M42.279676,46.5800279 C51.7708349,40.1901793 53.530641,26.4735302 45.5816059,18.1507279 C40.1120773,12.4240254 31.1639566,8.37079627 23.9884951,10.681723 C24.4904016,12.1677682 23.9729603,13.927663 21.9702108,14.3371899 C20.2034022,14.698448 18.4845048,15.3558755 16.9127659,16.2593336 C16.7145296,16.5624646 16.5196829,16.8728537 16.3331444,17.2009437 C15.6953287,18.3228721 14.6881239,18.7356239 13.6974237,18.6666857 C11.9530055,20.3569087 10.6220872,22.4454052 9.96203013,24.8290825 C8.41007519,30.4334852 10.0614653,36.5525254 13.5087611,41.1817458 C20.118943,50.0583621 32.8024925,52.9604526 42.279676,46.5800279 Z M38.6861088,28.9683226 C42.5474557,28.3374373 44.2006181,33.9747013 40.3140029,34.609693 L27.974662,36.6257563 C25.5451718,37.0226828 23.8116915,35.3354897 24.2082838,33.0274439 C25.2172749,27.1552588 26.2262683,21.2831109 27.2352616,15.4109619 C27.873785,11.6949926 33.7740887,13.2768131 33.1401626,16.9662152 C32.3794563,21.3932325 31.61875,25.8202869 30.8580802,30.2473064 C33.4674223,29.8209894 36.0767645,29.3946396 38.6861088,28.9683226 Z"/>
</svg>
