<svg xmlns="http://www.w3.org/2000/svg" width="60" height="60" viewBox="0 0 60 60">
  <path fill="#EE3236" d="M56.9355484,16.2857948 C56.7047947,12.6932354 56.5995383,8.71745676 53.1331258,6.7761359 C51.5913712,5.91268442 49.4548243,5.93922225 47.7542596,5.72600911 C45.0927637,5.39231881 42.4235187,5.12504441 39.7523891,4.88434351 C34.791151,4.43733931 29.8139806,4.18790266 24.8352541,4.06230713 C19.8558778,3.93671153 14.8731316,4.00923241 9.89665058,4.20595981 C6.17192891,4.35315786 2.67575514,6.35533965 3.02636153,10.2668213 C2.92566597,15.1905623 2.88992823,20.1142655 2.92190046,25.0389563 C2.95405339,29.9921211 2.69226648,35.1805028 3.44898574,40.0822018 C4.17891076,44.8104562 10.4905041,44.6293001 13.9692608,45.0881107 C18.4492542,45.6789519 22.9402167,46.1812967 27.4366099,46.6265091 C27.4666259,50.1032705 27.3584012,53.5739276 27.099329,57.046371 C26.9016676,59.6963072 30.4511031,60.9532461 32.1629631,59.1637311 C36.1123227,55.035196 39.6170423,50.5296617 42.6590868,45.6895147 C44.1145217,45.6493062 45.5615887,45.5378591 47.0118062,45.3318451 C48.9152114,45.0614664 51.9996222,44.9741027 53.4414768,43.5185321 C54.7197404,42.2281086 54.9038983,39.6175773 55.2946945,37.9220748 C55.8496236,35.5145223 56.2446204,33.0591951 56.5386718,30.6059518 C57.1100726,25.8381472 57.2433575,21.0783471 56.9355484,16.2857948 Z M51.6688307,22.5405768 C51.6007647,27.9424352 50.7736496,33.2778164 49.4244832,38.4938761 C47.497032,38.9183155 45.5674365,39.1896493 43.570972,39.2918049 C40.979193,39.4244648 39.7880205,39.3239503 38.3569196,41.6934275 C36.9764608,43.9790445 35.4518743,46.1630946 33.8134381,48.2580645 C33.8260349,46.6701514 33.818847,45.0815819 33.7705633,43.4908646 C33.7177047,41.7486055 32.4499321,40.6587862 30.7965384,40.5052801 C26.4850041,40.1048966 22.1802922,39.646415 17.881029,39.1297701 C15.8002657,38.8796831 13.7220062,38.608313 11.6455629,38.3245892 C11.830605,38.3498807 9.5213803,37.9895849 9.55365361,38.0807334 C9.2520766,37.2287921 9.44960734,35.8948298 9.42339561,35.0041838 C9.18270043,26.8230238 9.17300639,18.6360671 9.33426957,10.4533023 C9.36770519,10.2151696 9.37329564,9.96420899 9.3441439,9.70009096 C9.34508748,9.6041677 9.34272794,9.51043096 9.33633822,9.41935484 C10.0430685,10.4433522 16.1932201,9.69735791 17.1945197,9.68281645 C20.2673995,9.63824369 23.3408959,9.67734908 26.4129042,9.75443035 C32.5576469,9.90855669 38.6929106,10.3512926 44.8054882,10.9906124 C46.3337792,11.1504607 47.8591999,11.3368048 49.3839667,11.5269016 C51.1480873,11.7468488 51.1182829,12.0772232 51.3048839,13.7493247 C51.630497,16.6669746 51.7057893,19.6073649 51.6688307,22.5405768 Z"/>
</svg>
