<svg xmlns="http://www.w3.org/2000/svg" width="17" height="14" viewBox="0 0 17 14">
  <path fill="#EE3236" fill-rule="evenodd" d="M14.5625,4.359375 C13.4579305,4.359375 12.5625,3.4639445 12.5625,2.359375 C12.5625,1.2548055 13.4579305,0.359375 14.5625,0.359375 C15.6670695,0.359375 16.5625,1.2548055 16.5625,2.359375 C16.5625,3.4639445 15.6670695,4.359375 14.5625,4.359375 Z M8.5625,4.359375 C7.4579305,4.359375 6.5625,3.4639445 6.5625,2.359375 C6.5625,1.2548055 7.4579305,0.359375 8.5625,0.359375 C9.6670695,0.359375 10.5625,1.2548055 10.5625,2.359375 C10.5625,3.4639445 9.6670695,4.359375 8.5625,4.359375 Z M2.5625,4.359375 C1.4579305,4.359375 0.5625,3.4639445 0.5625,2.359375 C0.5625,1.2548055 1.4579305,0.359375 2.5625,0.359375 C3.6670695,0.359375 4.5625,1.2548055 4.5625,2.359375 C4.5625,3.4639445 3.6670695,4.359375 2.5625,4.359375 Z M2.5625,13.359375 C1.4579305,13.359375 0.5625,12.4639445 0.5625,11.359375 C0.5625,10.2548055 1.4579305,9.359375 2.5625,9.359375 C3.6670695,9.359375 4.5625,10.2548055 4.5625,11.359375 C4.5625,12.4639445 3.6670695,13.359375 2.5625,13.359375 Z M8.5625,13.359375 C7.4579305,13.359375 6.5625,12.4639445 6.5625,11.359375 C6.5625,10.2548055 7.4579305,9.359375 8.5625,9.359375 C9.6670695,9.359375 10.5625,10.2548055 10.5625,11.359375 C10.5625,12.4639445 9.6670695,13.359375 8.5625,13.359375 Z M14.5625,13.359375 C13.4579305,13.359375 12.5625,12.4639445 12.5625,11.359375 C12.5625,10.2548055 13.4579305,9.359375 14.5625,9.359375 C15.6670695,9.359375 16.5625,10.2548055 16.5625,11.359375 C16.5625,12.4639445 15.6670695,13.359375 14.5625,13.359375 Z"/>
</svg>
