<svg xmlns="http://www.w3.org/2000/svg" width="21" height="18" viewBox="0 0 21 18">
  <path fill="#FFF" fill-rule="evenodd" d="M19.2073171,10.9865663 C18.1989329,10.9865663 17.4146341,10.2022675 17.4146341,9.19388338 C17.4146341,8.21350991 18.1989329,7.40120046 19.2073171,7.40120046 C20.1876905,7.40120046 21,8.18549924 21,9.19388338 C21,10.1742569 20.2157012,10.9865663 19.2073171,10.9865663 Z M15.6219512,7.40120046 C14.6415777,7.40120046 13.8292683,6.58889101 13.8292683,5.60851753 C13.8292683,4.62814405 14.6135671,3.8158346 15.6219512,3.8158346 C16.6023247,3.8158346 17.4146341,4.60013338 17.4146341,5.60851753 C17.4146341,6.58889101 16.6303354,7.40120046 15.6219512,7.40120046 Z M12.0369369,3.8158346 C11.0287505,3.8158346 10.2166004,3.00352515 10.2446056,2.02315168 C10.2446056,1.0427782 11.0287505,0.23046875 12.0369369,0.23046875 C13.0171181,0.23046875 13.8292683,1.01476753 13.8292683,2.02315168 C13.8292683,3.00352515 13.0451233,3.8158346 12.0369369,3.8158346 Z M15.6219512,14.059737 C14.6415777,14.059737 13.8292683,13.2474276 13.8292683,12.2670541 C13.8292683,11.2866806 14.6135671,10.4743712 15.6219512,10.4743712 C16.6023247,10.4743712 17.4146341,11.25867 17.4146341,12.2670541 C17.4146341,13.2474276 16.6303354,14.059737 15.6219512,14.059737 Z M12.0369369,17.6451029 C11.0287505,17.6451029 10.2166004,16.8608041 10.2446056,15.85242 C10.2446056,14.8720465 11.0287505,14.059737 12.0369369,14.059737 C13.0171181,14.059737 13.8292683,14.8440358 13.8292683,15.85242 C13.8292683,16.8327934 13.0451233,17.6451029 12.0369369,17.6451029 Z M13.3061118,9.93344559 C12.6085698,10.6546797 11.4646009,10.6546797 10.7670589,9.93344559 C10.0695169,9.23995122 10.0695169,8.10262047 10.7670589,7.40912611 C11.4646009,6.71563174 12.6085698,6.71563174 13.3061118,7.40912611 C14.0036538,8.10262047 14.0036538,9.23995122 13.3061118,9.93344559 Z M8.18416058,9.93344559 C7.48661858,10.6546797 6.37055139,10.6546797 5.64510772,9.93344559 C4.94756572,9.23995122 4.94756572,8.10262047 5.64510772,7.40912611 C6.34264971,6.71563174 7.48661858,6.71563174 8.18416058,7.40912611 C8.88170257,8.10262047 8.88170257,9.23995122 8.18416058,9.93344559 Z M3.06220936,9.93344559 C2.33676568,10.6546797 1.22069849,10.6546797 0.523156496,9.93344559 C-0.174385499,9.23995122 -0.174385499,8.10262047 0.523156496,7.40912611 C1.22069849,6.71563174 2.36466736,6.71563174 3.06220936,7.40912611 C3.75975135,8.10262047 3.75975135,9.23995122 3.06220936,9.93344559 Z"/>
</svg>
