<svg xmlns="http://www.w3.org/2000/svg" width="32" height="28" viewBox="0 0 32 28">
  <path fill="#EE3236" d="M31.5633895,3.10957283 L31.5633895,3.14909719 C31.5633895,3.74196264 31.1664708,4.216255 30.5710928,4.37435245 C24.7760804,5.79722952 21.8785742,9.31489784 21.8785742,14.9273574 C21.8785742,17.0221487 22.4739522,18.0497821 23.7044001,18.0497821 C23.9822431,18.0497821 24.299778,18.0102577 24.6966967,17.8916846 C25.4508421,17.6545385 26.1256039,17.5359654 26.68129,17.5359654 C28.3086565,17.5359654 29.6184881,18.0497821 30.5710928,19.0774155 C31.5236976,20.105049 32,21.2512555 32,22.5555595 C32,23.8598635 31.5236976,25.00607 30.531401,25.9941791 C29.5391043,26.9822882 28.2689646,27.4961049 26.7209819,27.4961049 C24.5776211,27.4961049 22.7517953,26.5079958 21.1641206,24.5317777 C19.576446,22.5555595 18.7826087,19.9074272 18.7826087,16.5478563 C18.7826087,12.7139931 19.8939809,9.43347093 22.0770336,6.74581424 C23.9822431,4.41387681 26.5622144,2.79337792 29.8566392,1.88431757 C30.7695522,1.68669575 31.5633895,2.2795612 31.5633895,3.10957283 Z M12.6998428,1.75762893 L12.6998428,1.79709249 C12.6998428,2.38904579 12.3017287,2.86260843 11.7045574,3.02046264 C5.8920901,4.44115056 2.98585647,7.95340681 2.98585647,13.5572314 C2.98585647,15.6487997 3.62283918,16.6748521 4.89680461,16.6748521 C5.13567313,16.6748521 5.45416448,16.6353885 5.8920901,16.5169979 C6.64850707,16.2802166 7.3253012,16.1618259 7.88266108,16.1618259 C9.47511786,16.1618259 10.7888947,16.6748521 11.7443688,17.7009045 C12.7396543,18.7269569 13.2173913,19.8713999 13.2173913,21.1736972 C13.2173913,22.3970673 12.7396543,23.5415104 11.7841802,24.5675628 C10.8287061,25.5936151 9.5547407,26.1461049 7.9224725,26.1461049 C5.77265584,26.1461049 3.94133054,25.1595161 2.34887376,23.1863384 C0.756416972,21.2131607 -5.32907052e-14,18.5296391 -5.32907052e-14,15.1752371 C-5.32907052e-14,11.3472724 1.11471975,8.07179747 3.30434783,5.38827584 C5.21529597,3.05992619 7.80303824,1.44192051 11.0675746,0.534258779 C11.9036145,0.336941012 12.6998428,0.928894312 12.6998428,1.75762893 Z"/>
</svg>
